<svg xmlns="http://www.w3.org/2000/svg" xmlns:xlink="http://www.w3.org/1999/xlink" version="1.1" id="Layer_1" x="0px" y="0px" width="100px" height="100px" viewBox="0 0 100 100" enable-background="new 0 0 100 100" xml:space="preserve">
<path d="M67.395,32.602C67.758,32.729,67.312,32.453,67.395,32.602C67.429,32.614,67.397,32.606,67.395,32.602z"/>
<path d="M84.585,46.449c-0.196,0.005-0.396-0.036-0.396-0.036s-0.158,1.491-0.064,1.93C84.441,47.895,84.565,47.016,84.585,46.449z"/>
<path d="M86.917,40.037c-0.153,0.161-0.189,0.341-0.345,0.512c0.938,0.122,2.016-0.716,2.461-1.602  c-0.292,0.117-0.698,0.512-0.97,0.548c0.092-0.088,0.163-0.192,0.213-0.311C87.779,39.316,87.268,39.666,86.917,40.037z"/>
<path d="M27.158,39.912c-0.077,0.539-0.16,1.078-0.24,1.617c3.388,0.462,6.776,0.847,10.185,1.116  c0.128-1.894,0.255-3.787,0.387-5.68c0.039-0.566,0.079-1.132,0.118-1.698c0.028-0.397-0.783-0.252-1.104-0.276  c-1.058-0.08-2.114-0.198-3.17-0.301c-0.939-0.092-1.876-0.217-2.813-0.328c-0.557-0.066-2.453-0.633-2.538-0.075  C27.699,36.161,27.432,38.037,27.158,39.912z"/>
<path d="M73.535,47.88c0.259,0.428,0.665,0.727,1.091,0.971c0.705,0.396,1.305-0.167,1.939-0.372  c-0.026-0.763,0.402-1.525,0.634-2.239c0.087-0.264,0.326-0.446,0.606-0.446c0.442,0,0.971-0.722,1.056-1.245  c-0.291,0.217-0.454,0.463-0.716,0.733c-0.615,0.638-0.986-0.395-1.01-0.864c-0.404,0.073-0.856,0.231-1.268,0.216  c-0.261-0.01-1.168,1.126-1.363,1.413c-0.3,0.44-0.402,0.605-0.531,1.111C73.903,47.43,73.576,47.663,73.535,47.88  C73.548,47.901,73.538,47.863,73.535,47.88z"/>
<path d="M58.455,37.819c0.246,0.403-0.014,1.267,0.423,1.412c0.114,0.034,0.23,0.086,0.322,0.163  c0.499,0.418,2.937-0.115,3.656-0.178c-0.073-0.601-0.336-1.09-0.138-1.713c0.105-0.33,0.232-1.388,0.202-1.705  c-1.388,0.302-0.292-1.478-0.393-1.732c-0.124-0.314-0.313-0.526-0.271-0.903c-0.211-0.045-0.386-0.186-0.459-0.394  c-0.264-0.05-0.502,0.033-0.782-0.022c-0.915-0.181-1.649-0.46-2.377-0.948c-0.351-0.235-0.705,0.087-1.037-0.183  c-0.344-0.28,0.07-0.301-0.481-0.082c-0.195,0.078-0.65,0.035-0.63,0.261c0.041,0.46,0.031,0.959-0.382,1.255  c-0.27,0.193-0.454,0.165-0.209,0.486c0.343,0.448,0.001,1.112,0.065,1.629c0.007,0.058,0.77,0.412,0.883,0.509  c0.354,0.303,0.814,0.615,1.138,0.939C58.326,36.953,58.232,37.454,58.455,37.819z"/>
<path d="M81.218,45.069c-0.228,0.024-1.05-0.103-1.315-0.262c-0.122,0.716-0.716,0.957-0.886,1.578  c-0.044,0.158-0.12,0.311-0.242,0.425c-0.054,0.05-0.117,0.093-0.184,0.124c-0.49,0.235-0.369-0.182-0.599,0.384  c-0.139,0.342-0.374,0.7-0.359,1.077c0.045,1.075-1.511,1.655-2.443,1.655c-0.778-0.002-1.234-0.207-1.651,0.769  c3.411-0.462,6.791-1.082,10.162-1.774c-0.616-0.755-0.354-1.676-0.967-2.243c-0.405-0.003-1.437-0.152-1.604-0.569  C81.033,45.992,81.209,45.068,81.218,45.069C81.137,45.078,81.233,45.073,81.218,45.069z"/>
<path d="M26.237,42.517c-0.73-0.099-0.368-1.215-0.302-1.661c0.113-0.765-0.067-0.594-0.825-0.708  c-0.919-0.138-1.838-0.288-2.753-0.454c-0.557,3.111-1.113,6.222-1.67,9.333c-0.097,0.542,0.499,0.401,0.974,0.482  c0.751,0.128,1.504,0.244,2.256,0.365c1.347,0.218,2.701,0.393,4.054,0.57c0.242-1.917,0.484-3.835,0.727-5.752  c0.017-0.138,0.265-1.804,0.198-1.814C28.01,42.759,27.123,42.638,26.237,42.517z"/>
<path d="M53.207,60.112c-0.345-0.27-0.937-0.473-1.33-0.524c-0.906-0.121-1.596,0.729-2.335,0.09  c-0.448-0.386-0.864,0.668-1.355-0.023c-0.366-0.083-0.347-0.021-0.76-0.021c-0.232-0.007-0.43-0.097-0.594-0.27  c-0.316-0.321-0.348-0.086-0.741-0.222c-0.749-0.259-3.034-0.754-2.976-1.789c0.053-0.941,0.075-1.883,0.111-2.825  c-0.359-0.001-4.17-0.196-4.171-0.176c-0.117,1.633-0.22,3.267-0.363,4.897c-0.071,0.808-0.133,1.614-0.186,2.423  c-0.021,0.326,0.053,0.885-0.078,1.188c-0.044,0.668-0.908,0.478-1.334,0.45c-1.507-0.099-3.016-0.216-4.519-0.361  c0.665,0.724,1.539,1.527,1.993,2.4c0.554,1.066,0.592,1.903,1.606,2.656c0.297,0.221,0.599,0.443,0.92,0.627  c0.295-0.541,0.744-1.062,1.293-1.358c1-0.539,2.226-0.154,3.024,0.554c1.345,1.193,1.818,3.148,3.011,4.415  c0.293,0.312,0.244,0.653,0.263,1.045c0.021,0.432,0.493,1.232,0.771,1.576c0.178,0.221,0.617,0.108,0.848,0.188  c0.453,0.157,0.879,0.262,1.326,0.401c-0.5-1.962-0.028-3.843,1.8-4.909c0.067-0.476,0.582-0.667,1.004-0.667  c0.529,0,0.912-0.333,1.337-0.675c0.434-0.349,0.69-2.275,1.588-1.279c1.321-0.431,0.901-0.896,1.138-1.987  c0.134-0.617,0.276-0.813-0.033-1.442c-0.152-0.415-0.576-0.868-0.684-1.258c-0.13-0.467-0.049-1.091-0.064-1.565  c-0.012-0.383-0.024-0.766-0.036-1.15C53.67,60.084,53.547,60.385,53.207,60.112z"/>
<path d="M70.575,54.689c0.217-0.675,0.813-1.142,1.424-1.408c0.412-0.179,0.696-0.598,0.994-0.903c0.196-0.2,0.789-0.402,1.074-0.55  c-2.612,0.355-5.225,0.687-7.851,0.916c-0.637,0.056-1.156,0.001-1.613,0.376c-0.194,0.159-0.532,0.139-0.764,0.159  c-0.167,0.014-1.592,0.044-1.616,0.162c-0.151,0.749-0.624,1.478-0.723,2.22c1.416-0.109,2.828-0.242,4.241-0.388  C66.079,55.239,70.458,55.051,70.575,54.689z"/>
<path d="M38.464,38.396c1.696,0.125,3.393,0.212,5.092,0.272c0.951,0.034,1.901,0.055,2.853,0.07  c0.371,0.006,0.595,0.226,0.881,0.421c0.557-0.357,1.282,0.022,1.811,0.148c0.095-0.452-0.276-1.055,0.025-1.429  c0.224-0.279,0.113-0.717,0.111-1.08c-0.005-0.698-0.01-1.396-0.014-2.094c-0.003-0.417-0.769-0.62-0.597-1.22  c-2.533-0.012-5.065-0.07-7.595-0.209c-0.671-0.037-1.341-0.087-2.011-0.13c-0.328-0.021-0.167,1.265-0.261,1.589  C38.435,35.853,38.545,37.229,38.464,38.396z"/>
<path d="M73.518,55.338c0.012-0.018,2.899,2.609,3.396,3.041c0.828,0.72,0.458,1.18,1.693,0.607c1.2-0.557,1.267-1.699,1.869-2.674  c0.308-0.499-0.869-0.997-1.308-1.31c-0.455-0.325-1.303,0.281-1.828,0.187c-0.586,0.091-0.447-0.568-0.947-0.568  c-0.519,0-1.04,0.049-1.556,0.103C74.581,54.763,73.701,55.072,73.518,55.338z"/>
<path d="M76.74,43.142c1.238-0.224,2.479-0.442,3.709-0.706c1.341-0.287,2.779-0.372,3.699-1.359  c-0.377-0.295-0.884-0.793-0.667-1.333c-0.217-0.281,0.208-0.994,0.163-1.022c-0.257-0.16-0.317-0.426-0.524-0.633  c-0.468-0.467-3.254,0.517-3.905,0.646c-0.64,0.126-2.896,0.953-3.422,0.393c-0.154-0.164,0.048,1.605,0.067,1.715  c0.137,0.795,0.274,1.589,0.412,2.383C76.414,43.201,76.612,43.208,76.74,43.142z"/>
<path d="M18.998,30.477c-0.391-0.525-1.155-0.47-1.791-0.62c-1.69-0.397-3.308-0.029-4.995-0.584  c-0.733-0.241-1.547,0.306-2.043-0.628c-0.127-0.239,0.025-0.905-0.192-1.028c-0.545-0.21-0.547-0.251-0.711,0.371  c-0.52,1.977-1.326,3.968-2.508,5.611c0.063,0.267-0.24,1.327-0.103,1.365c0.601,0.166,1.202,0.333,1.803,0.499  c0.951,0.263,1.902,0.516,2.858,0.759c1.841,0.468,3.688,0.906,5.546,1.303c0.227-1.092,0.455-2.183,0.682-3.275  c0.089-0.429,0.283-0.289,0.071-0.685c-0.283-0.526-0.001-1.036,0.377-1.414C18.296,31.846,19.257,30.825,18.998,30.477z"/>
<path d="M39.05,53.223c1.17,0.152,2.378,0.06,3.555,0.171c0.369,0.035,1.719-0.052,1.704,0.383c-0.027,0.812-0.054,1.624-0.08,2.437  c-0.01,0.29-0.019,0.58-0.029,0.87c-0.014,0.415,0.465,0.14,0.658,0.169c0.536,0.081,0.515,0.646,1.097,0.706  c0.356,0.036,1.09-0.062,1.373,0.151c0.442,0.333-0.084,0.263,0.443,0.263c0.18,0,0.309,0.066,0.445,0.168  c0.398,0.103,0.621-0.098,1.012-0.098c0.359,0,0.674,0.134,0.941,0.362c0.314-0.178,0.671-0.268,1.029-0.3  c0.618-0.055,1.133-0.107,1.668,0.229c-0.006-0.901-0.012-1.801-0.018-2.702c-0.007-0.998-0.356-1.945-0.381-2.936  c-0.013-0.533-1.167-0.239-1.631-0.239c-1.003,0-2.006,0-3.009,0c-1.636,0-3.271-0.119-4.905-0.2  c-0.722-0.036-1.444-0.064-2.165-0.097c-0.466-0.021-0.933-0.041-1.399-0.062C39.012,52.482,39.1,52.925,39.05,53.223z"/>
<path d="M69.526,45.903c0.779,0.073,0.885,0.731,1.736,0.645c0.683-0.069,1.093-0.277,1.701,0.191c0.08-0.669,0.572-1.35,0.971-1.9  c0.369-0.509,0.758-0.228,0.908-0.99c0.09-0.455,0.051-0.949,0.02-1.408c-0.052-0.778-0.069-1.5-0.211-2.326  c-0.828,0.519-1.722,1.594-2.843,1.353c-0.924-0.199-1.422-0.371-2.352-0.218c-0.41,0.068-0.484-0.022-0.437,0.369  c0.067,0.567,0.134,1.134,0.201,1.701C69.323,44.181,69.424,45.042,69.526,45.903z"/>
<path d="M85.127,38.391c0.205-0.63,0.576-0.124,0.438-0.892c-0.039-0.216-0.075-0.415-0.143-0.619  c-0.159-0.479,0.065-1.063,0.008-1.557c-0.045-0.388-0.151-1.119-0.436-1.332c-0.48-0.36-0.663-2.203-0.75-2.793  c-0.454,0.115-0.924,0.287-1.388,0.347c-0.804,0.105-0.948,1.127-1.346,1.663c-0.356,0.478,0.053,0.585,0.019,1.12  c-0.041,0.645-0.577,1.308-1.154,1.567c-0.877,0.4-1.848,0.065-2.736,0.385c0.495,0.799-0.151,1.493-0.662,2.055  c1.533-0.258,3.06-0.592,4.578-0.924c0.973-0.213,1.697-0.606,2.454,0.258C84.365,38.075,84.567,38.256,85.127,38.391z"/>
<path d="M18.429,50.933c0.288-0.135,0.61-0.117,0.868,0.064c0.339-1.25,0.431-2.694,0.66-3.97c0.354-1.981,0.709-3.962,1.063-5.943  c0.09-0.505,0.181-1.01,0.271-1.515c0.03-0.167-1.356-0.319-1.587-0.364c-1.392-0.27-2.779-0.572-4.165-0.869  c-0.623-0.133-1.242-0.286-1.862-0.432c-0.855-0.201-0.677-0.006-0.881,0.833c-0.366,1.51-0.73,3.02-1.107,4.527  c-0.053,0.212,0.479,0.769,0.592,0.934c0.564,0.822,1.127,1.643,1.691,2.465c0.861,1.255,1.722,2.51,2.583,3.765  c0.46,0.671,0.913,1.347,1.369,2.02C17.937,51.895,17.807,51.227,18.429,50.933C18.557,50.874,17.849,51.207,18.429,50.933z"/>
<path d="M30.909,62.043c0.323-0.632,1.591-0.171,2.116-0.127c1.457,0.121,2.913,0.246,4.372,0.341  c0.183-2.789,0.402-5.573,0.574-8.363c0.019-0.308-0.035-0.739,0.102-1.032c0.289-0.62-0.907-0.414-1.315-0.444  c-1.31-0.095-2.62-0.211-3.927-0.342c-0.587-0.059-1.175-0.11-1.76-0.179c-0.373-0.044-1.894-0.464-2.171-0.256  c-0.116,0.087-0.109,0.861-0.126,0.997c-0.103,0.811-0.205,1.621-0.308,2.431c-0.245,1.936-0.49,3.872-0.735,5.808  c-0.072,0.566-0.143,1.131-0.215,1.697c-0.052,0.412,0.795,0.346,1.127,0.41C28.659,61.204,30.508,62.827,30.909,62.043z"/>
<path d="M47.355,40.304c-0.443,0-0.64-0.387-0.999-0.495c-0.377-0.114-0.937-0.014-1.331-0.02c-0.803-0.012-1.607-0.053-2.409-0.082  c-1.409-0.05-2.818-0.138-4.224-0.242c-0.051,0.753-0.102,1.506-0.152,2.259c-0.067,1-0.218,0.991,0.805,1.065  c0.588,0.042,1.455-0.115,1.994,0.14c0.582,0.276,0.246,1.656,0.221,2.149c3.134,0.16,6.271,0.212,9.408,0.181  c-0.474-0.722-0.253-1.562-0.488-2.331c-0.696-0.304-0.362-1.84-0.985-2.301C48.561,40.16,48.094,40.066,47.355,40.304z"/>
<path d="M44.055,32.338c1.664,0.04,3.326,0.069,4.99,0.077c-0.07-0.372-0.272-0.694-0.333-1.086  c-0.017-0.724,0.013-1.666-0.262-2.331c-0.225-0.545-0.387-1.277-0.208-1.86c0.102-0.337-0.672-0.199-0.816-0.199  c-1.473,0-2.95-0.065-4.422-0.129c-0.708-0.031-1.417-0.05-2.125-0.096c-0.592-0.038-1.518-0.451-1.567,0.261  c-0.118,1.698-0.236,3.395-0.354,5.092C40.656,32.178,42.354,32.262,44.055,32.338z"/>
<path d="M75.477,51.791c-0.262,0.588-0.75,0.867-1.258,1.217c-0.306,0.21-0.456,0.158-0.728,0.445  c-0.379,0.401-1.342,0.689-1.536,1.089c0.981-0.138,1.82-0.782,2.754-0.883c0.681-0.07,1.55-0.254,2.223-0.059  c0.19,0.054,0.584,0.475,0.701,0.456c0.329-0.052,0.658-0.104,0.987-0.156c0.856-0.136,1.064,0.153,1.789,0.671  c0.639,0.456,0.879,0.824,1.63,0.655c0.042-0.499,0.304-0.912,0.634-1.269c0.221-0.239,0.469-0.457,0.736-0.644  c-0.167-0.259-0.078-0.597,0.172-0.748c-0.517-0.084-0.921-0.805-0.288-1.079c0.402-0.174,1.426,0.313,1.626-0.268  c-0.444,0.02-2.561,0.123-1.741-0.973c-1.364,0.28-2.727,0.539-4.097,0.784C78.398,51.153,75.702,51.286,75.477,51.791z"/>
<path d="M26.437,33.675c0.232-0.311,0.519-0.123,0.632-0.439c0.027-0.076,0.073-0.145,0.13-0.201  c0.116-0.114,0.285-0.172,0.447-0.15c0.996,0.166,2.006,0.296,3.009,0.415c2.361,0.279,4.721,0.533,7.093,0.711  c0.17-2.472,0.343-4.944,0.514-7.416c0.003-0.043-6.446-0.715-7.136-0.798c-2.443-0.296-4.867-0.723-7.293-1.136  c-0.541-0.092-1.079-0.211-1.618-0.317c-0.099-0.02-0.377,1.435-0.282,1.679c0.171,0.437,0.222,0.941,0.504,1.301  c0.288,0.368,0.532,0.74,0.737,1.158c0.101,0.206,0.477,0.114,0.601,0.416c0.205,0.5-0.388,1.399-0.528,1.886  c0.846-0.486,1.055,1.146,1.112,1.606c0.072,0.579,0.615,0.604,0.615,1.193C25.455,33.51,25.965,33.589,26.437,33.675  C26.546,33.529,26.001,33.596,26.437,33.675z"/>
<path d="M60.969,56.777c-0.298,0.619-0.626,1.284-0.853,1.924c-0.25,0.702-0.283,1.259-0.199,2.052  c0.027,0.257,0.099,0.44,0.23,0.666c0.653,1.125-0.479,2.026-0.734,3.061c0.793-0.054,2.096-0.421,2.846-0.193  c0.553-0.033,0.671,0.598,0.487,0.997c-0.347,0.761,1.108,0.131,1.497,0.189c-0.404-3.011-0.313-5.905-0.256-8.946  C62.983,56.623,61.976,56.699,60.969,56.777z"/>
<path d="M50.133,32.983c0.001,0.262-0.098,0.532-0.297,0.708c0.946,0.533,0.473,3.066,0.479,3.983  c2.321-0.019,4.642-0.092,6.96-0.225c-0.124-0.317-0.705-0.426-0.911-0.75c-0.381-0.594-1.248-0.442-1.429-1.215  c-0.085-0.364-0.11-0.764-0.057-1.132c0.081-0.562-0.533-0.858-0.092-1.466c0.495-0.693,0.597-0.538,0.619-1.384  c0.004-0.242,0.067-0.484,0.208-0.683c0.146-0.206,0.377-0.407,0.563-0.564c0.634-0.54,1.032-1.279,1.732-1.746  c-0.434-0.133-0.738,0.351-1.275,0.161c-0.201-0.071-0.35-0.176-0.491-0.326c-0.196-0.088-0.307,0.089-0.539,0.023  c-0.462-0.131-0.66-0.748-1.142-0.748c-0.396,0-0.659,0.465-1.128,0.171c-0.322-0.203-0.651-0.203-1.03-0.289  c-0.549-0.124-0.369-0.598-0.933-0.584c-0.689,0.016-1.377,0.022-2.066,0.022c0.083,0.439-0.128,0.886,0.017,1.339  c0.326,1.019,0.438,2.017,0.464,3.097C49.796,31.883,50.129,32.412,50.133,32.983z"/>
<path d="M61.452,52.568c0.061-0.134,0.161-0.251,0.288-0.326c-0.624-0.354-0.51-1.196-0.79-1.742  c-1.067,0.291-1.614-1.41-1.253-2.15c-0.908,0.157-0.65-0.874-1.16-1.218c-0.43-0.291-0.783-0.673-1.002-1.145  c-0.41-0.885,0.125-1.234-1.091-1.13c-1.502,0.17-3.047,0.181-4.559,0.169c0.263,0.432,0.241,0.256,0.706,0.565  c0.625,0.415,0.071,0.959,0.335,1.434c0.213,0.385,0.483,0.42,0.495,0.94c0.037,1.615,0.075,3.231,0.112,4.846  c1.493-0.035,2.986-0.089,4.476-0.184c0.846-0.054,2.61-0.637,3.214,0.281C61.264,52.761,61.395,52.693,61.452,52.568z"/>
<path d="M59.233,61.982c-0.519-0.669-0.106-0.768-0.953-0.722c-0.516,0.028-1.031,0.056-1.547,0.084  c-0.314,0.017-1.95,0.023-1.947,0.124c0.013,0.442,0.027,0.884,0.04,1.325c0.011,0.381,0.62,1.216,0.791,1.638  c0.288,0.712-0.149,1.172-0.075,1.807c0.038,0.339,0.055,0.697-0.012,1.034c0.682-0.096,1.347,0.354,2.024,0.398  c0.238-0.673,1.106-0.522,1.585-0.251c0.403,0.228,1.074,0.518,1.279,0.943c0.447,0.186,0.774-0.842,1.15-0.927  c-0.612-0.036-1.19-0.641-0.837-1.253c0.302-0.523,0.798-0.25,0.875-0.776c-0.798,0.054-2.045,0.402-2.807,0.19  C57.163,65.699,59.442,62.485,59.233,61.982C59.062,61.761,59.257,62.041,59.233,61.982z"/>
<path d="M69.587,47.243c-0.102,0.307-0.391,0.592-0.72,0.644c-0.32,0.05-0.508,0.545-0.73,0.843c-0.178,0.24-0.09,0.509-0.327,0.722  c-0.366,0.33-0.7,0.077-1.029,0.369c-0.213,0.189-1.138,0.395-1.403,0.343c-0.393-0.077-0.495-0.008-0.871,0.14  c-0.076,0.03-0.474,1.165-0.502,1.267c-0.145,0.509-0.696,0.537-1.093,0.357c0.011,0.116,0.002,0.242-0.018,0.357  c0.904-0.077,1.362-0.454,2.321-0.531c1.647-0.133,3.291-0.296,4.931-0.492c0.783-0.094,1.917-0.059,2.403-0.859  c0.183-0.511,0.523-0.697,0.882-1.049c-0.406-0.333-1.083-0.983-0.98-1.566c0.067-0.384-0.555-0.12-0.667-0.12  c-0.299,0-0.597-0.029-0.902-0.029C70.47,47.639,69.629,47.115,69.587,47.243z"/>
<path d="M48.938,46.348c-2.578,0-5.158-0.068-7.733-0.199c-0.089,1.816-0.177,3.633-0.266,5.449  c3.832,0.168,7.662,0.231,11.498,0.158c-0.023-1.015,0.356-3.214-0.3-3.991c-0.234-0.277-0.53-0.639-0.59-0.994  c-0.079-0.465,0.132-0.45-0.32-0.445C50.464,46.333,49.701,46.341,48.938,46.348z"/>
<path d="M65.087,48.989c0.355,0,0.641-0.154,0.987-0.133c0.322-0.624,0.841-0.261,1.184-0.738c0.328-0.456,0.521-1.42,1.241-1.284  c-0.159-0.536-0.095-1.302-0.163-1.873c-0.143-1.203-0.286-2.407-0.429-3.61c-0.772,0.093-1.542,0.195-2.316,0.268  c-1.238,0.117-0.88,0.891-0.793,1.823c0.09,0.957,0.179,1.914,0.269,2.871c0.087,0.932,0.2,1.877-0.419,2.756  C64.791,49.023,64.937,48.997,65.087,48.989z"/>
<path d="M60.26,40.637c0.279,0.547,0.064,1.201-0.308,1.647c-0.223,0.267-0.524,0.491-0.867,0.57  c0.151,0.229,0.178,0.524,0.07,0.776c-0.357,0.859-1.197,1.701-0.204,2.483c0.414,0.326,0.781,0.554,0.881,1.11  c0.833-0.133,1.209,0.677,0.941,1.359c-0.246,0.625-0.055,0.66,0.583,0.901c0.569,0.215,0.697,0.899,0.797,1.419  c0.317-0.22,0.59-0.014,0.796-0.314c0.274-0.397,0.379-0.227,0.522-0.68c0.054-0.054,0.026-0.716,0.046-0.846  c0.08-0.529,0.827-1.157,0.55-1.692c-0.261-0.503-0.109-1.417-0.167-2.035c-0.119-1.27,0.045-3.033-0.55-4.174  c-0.152-0.291-0.162-0.899-0.512-0.868c-0.373,0.033-0.745,0.065-1.117,0.098c-0.515,0.045-1.033,0.066-1.549,0.096  C60.205,40.535,60.234,40.585,60.26,40.637z"/>
<path d="M21.102,25.767c0.082-0.407,0.164-0.813,0.246-1.22c0.097-0.482-0.108-0.38-0.574-0.497  c-0.242,1.128-0.483,2.255-0.725,3.383c-0.137,0.64-0.587,1.907-0.139,2.473c0.596,0.755,0.055,1.232-0.324,1.93  c-0.127,0.233-0.93,1.137-0.838,1.244c0.342,0.397,0.09,1.109-0.176,1.484c-0.305,1.026-0.444,2.13-0.663,3.179  c2.744,0.563,5.496,1.066,8.266,1.481c0.215-1.471,0.431-2.942,0.646-4.413c-0.139,0.02-0.291-0.029-0.422-0.055  c-0.348-0.067-0.704-0.129-1.06-0.129c-0.402,0-0.69,0.477-1.069,0.073c-0.177-0.188-0.319-0.423-0.377-0.677  c-0.082-0.362-0.372-0.407-0.473-0.777c-0.09-0.331-0.113-0.676-0.162-1.014c-0.077-0.527-0.659-0.067-0.998-0.561  c-0.416-0.607,0.073-1.568,0.298-2.151c0.039-0.101-0.586-1.033-0.72-1.217C21.093,27.277,21.077,26.964,21.102,25.767z"/>
<path d="M56.336,38.576c-2.028,0.084-4.054,0.153-6.083,0.17c0.088,0.409-0.176,0.723-0.06,1.112  c0.421,1.417,0.96,2.634,1.118,4.094c0.166,0.178,1.327,0.013,1.653,0.005c0.674-0.016,1.342-0.047,2.015-0.086  c0.583-0.034,2.442-0.519,2.883-0.021c0.305-0.589-0.251-1.202,0.267-1.737c0.603-0.622,1.773-0.511,0.645-1.48  c-0.685-0.589-1.265-1.083-1.181-2.129C57.174,38.528,56.755,38.552,56.336,38.576z"/>
<path d="M71.125,55.741c-0.547,0.07-1.094,0.138-1.64,0.208c0.344,1.163,0.689,2.326,1.033,3.489  c0.169,0.571,0.616,1.016,0.756,1.58c0.099,0.397-0.185,0.735-0.237,1.119c0.101,0.322,0.173,0.633,0.222,0.964  c0.095,0.648,0.216,0.861,0.894,0.813c1.261-0.091,2.522-0.182,3.782-0.272c0.124-0.009,0.422-0.564,0.826-0.582  c0.17-0.008,0.399-1.372,0.437-1.533c0.17-0.716,0.178-0.473-0.124-0.986c-0.244-0.414-0.463-0.94-0.795-1.287  c-0.759-0.788-1.708-1.382-2.468-2.159c-0.362-0.37-0.363-0.493-0.8-0.701c-0.294-0.14-0.612-0.389-0.689-0.724  C72.272,55.448,71.356,55.708,71.125,55.741z"/>
<path d="M81.721,72.939c-0.187-1.236-0.384-1.975-1.072-3.074c-0.445-0.71-1.019-1.393-1.227-2.222  c0.677,0.39,0.45,0.973,0.934,1.523c-0.214-0.349-0.198-0.713-0.347-1.048c-0.105-0.411-0.639-0.822-0.884-1.156  c-0.409-0.559-0.771-1.153-1.08-1.773c-0.315-0.631-0.254-0.975-0.945-1.062c0.031,0.37-0.14,0.859-0.553,0.94  c-0.458,0.089-0.694-0.348-1.193-0.312c-0.689,0.05-1.379,0.099-2.068,0.149c-0.607,0.044-1.213,0.087-1.82,0.131  c-0.559,0.04-0.603-0.528-1.073-0.472c-1.109,0.133-2.216,0.266-3.327,0.378c0.131,0.245,0.158,0.562,0.07,0.823  c0.963-0.296,2.049-0.327,2.924,0.234c0.357,0.229,0.605,0.802,1.033,0.698c0.396-0.096,0.659-0.338,1.017-0.486  c0.385-0.159,0.163-0.417,0.526-0.514c1.069-0.285,1.59,1.016,2.325,1.477c0.726,0.455,1.098,0.511,1.084,1.45  c-0.006,0.426-0.064,0.851-0.142,1.269c-0.037,0.201,0.214,0.71,0.405,0.393c0.453-0.752,0.52-0.086,0.072,0.423  c-0.277,0.317,0.809,1.329,1.149,1.392c-0.114-0.098-0.147-0.204-0.098-0.319c0.32,0.279,0.757,1.047,0.921,1.47  c0.254,0.655,1.073,0.709,1.477,1.342c0.126,0.197,0.155,0.672,0.326,0.739c0.481-0.013,0.684-0.067,0.849-0.559  c0.048-0.411,0.426-0.584,0.57-0.921C81.71,73.534,81.774,73.314,81.721,72.939z M80.983,74.492c-0.037-0.205-0.031-0.408,0.02-0.61  C81.043,73.713,80.861,74.707,80.983,74.492C80.942,74.27,80.984,74.491,80.983,74.492z"/>
<path d="M33.815,51.098c2.018,0.168,4.034,0.314,6.054,0.442c0.124-2.54,0.245-5.079,0.377-7.618  c-2.951-0.145-5.891-0.422-8.828-0.735c-0.303-0.032-1.416-0.279-1.442-0.066c-0.102,0.804-0.203,1.608-0.305,2.412  c-0.212,1.682-0.425,3.363-0.637,5.045C30.627,50.765,32.219,50.937,33.815,51.098z"/>
<path d="M17.958,54.948c-0.147-1.611-1.779-3.174-2.68-4.488c-1.512-2.204-3.024-4.408-4.536-6.612  c-0.416-0.607,0.102-1.603,0.264-2.268c0.324-1.335,0.648-2.671,0.971-4.006c0.005-0.019-5.416-1.599-5.837-1.698  c-0.215,0.857-0.371,1.576-0.775,2.372c-0.402,0.792,0.251,1.547,0.114,2.378c-0.169,1.017-0.29,1.622,0.242,2.562  c0.396,0.701,0.171,1.055,0.794,1.642c0.128-1.092,1.482-0.553,1.82,0.093c-0.29-0.267-0.977-0.54-1.37-0.481  c-0.461,0.069,0.057,1.107,0.121,1.344c-0.308-0.282-0.448-0.456-0.425-0.89c-0.639,0.528-0.087,1.492,0.14,2.105  c0.235,0.635-0.116,0.81-0.073,1.415c0.048,0.691,0.62,1.319,0.903,1.926c0.106,0.226,0.532,0.864,0.484,1.102  c-0.077,0.382-0.313,0.488-0.06,0.872c0.431,0.653,1.229,1.029,1.892,1.395c0.315,0.174,0.63,0.347,0.931,0.545  c0.495,0.324,0.259,0.575,0.539,0.988c0.386,0.512,0.996,0.552,1.274,1.264c0.15,0.383-0.093,1.658,0.386,1.708  c1.001,0.103,2.003,0.206,3.004,0.309c0.703,0.072,0.781-0.187,0.763-0.615c-0.01-0.249,0.032-0.514,0.105-0.754  c0.063-0.203,0.213-0.368,0.359-0.516c0.246-0.25,0.179-0.549,0.339-0.848C17.973,55.179,17.907,55.555,17.958,54.948  C17.956,54.926,17.944,55.118,17.958,54.948z M7.553,45.185c-0.091-0.002-0.139-0.043-0.144-0.124  C7.457,45.102,7.505,45.144,7.553,45.185C7.514,45.169,7.5,45.123,7.553,45.185z M7.339,46.254c-0.051,0.042-0.109,0.07-0.175,0.085  C7.13,46.265,7.189,46.237,7.339,46.254C7.325,46.264,7.28,46.285,7.339,46.254z"/>
<path d="M27.292,51.436c-2.28-0.299-4.554-0.646-6.817-1.052c-0.065,0.638-0.424,2.523-1.489,1.786  c0.036,0.546-0.402,1.574-0.161,2.018c0.208,0.384,0.685,1.214,0.368,1.674c-0.108,0.153-0.275,0.264-0.445,0.338  c-0.295,0.127-0.199,0.491-0.337,0.755c-0.198,0.378-0.683,0.538-0.323,0.933c0.372,0.407,0.157,0.87-0.234,1.141  c1.524,0.878,3.046,1.76,4.579,2.622c0.927,0.522,1.5,0.638,2.567,0.788c0.61,0.086,1.394,0.488,1.482-0.214  c0.272-2.147,0.543-4.295,0.815-6.442c0.094-0.744,0.188-1.488,0.282-2.232C27.659,52.909,28.289,51.351,27.292,51.436z"/>
<path d="M60.142,56.019c0.177-0.472,0.386-0.901,0.568-1.377c-0.614,0.156-1.045-0.524-0.691-1.072  c-2.127,0.136-4.252,0.259-6.383,0.309c0.256,1.133,0.284,2.19,0.291,3.34c0.004,0.643,0.008,1.287,0.013,1.93  c0,0.027,0.773,0.131,0.788,0.568c0.063,0.174,0.015,0.44,0.022,0.633c0.549-0.02,4.148-0.028,4.129-0.357  C58.264,58.849,59.732,57.116,60.142,56.019z"/>
<path d="M66.295,63.944c1.318-0.133,2.632-0.283,3.948-0.441c-0.085-0.406-0.292-0.949-0.28-1.363  c0.009-0.321,0.124-0.646,0.237-0.942c-0.11-0.216-0.278-0.393-0.39-0.608c-0.402-0.774-0.573-1.705-0.819-2.534  c-0.048-0.162-0.505-1.99-0.611-1.979c-0.932,0.097-1.864,0.193-2.797,0.29c-0.681,0.071-0.524,0.157-0.537,0.839  c-0.021,1.115-0.042,2.229-0.063,3.344c-0.027,1.457,0.048,2.742,0.242,4.189c0.577-0.318,0.29,0.132,0.512-0.346  C65.838,64.178,66.049,63.968,66.295,63.944z"/>
<path id="wa_1_" d="M10.804,27.036c-0.296-0.096-0.413-0.344-0.747-0.425c-0.523-0.128-0.29-0.286-0.182-0.727  c-0.145,0.648,0.213,0.349,0.194-0.008c-0.011-0.206-0.182-0.365-0.098-0.572c0.137,0.115,0.263,0.027,0.423,0.012  c-0.115-0.116-0.324-0.389-0.399-0.145c-0.116-0.924,0.138-1.954,0-2.849c0.735,0.496,1.509,0.865,2.185,1.377  c0.037-0.084,0.085-0.16,0.145-0.229c0.012,0.33,0.389,0.707-0.036,0.821c-0.022,0.126-0.013,0.773,0.129,0.806  c0.304,0.07,0.388-2.03,0.453-2.263c0.155-0.135-0.259-0.967-0.047-0.91c0.395,0.106,0.789,0.212,1.184,0.318  c1.292,0.348,2.594,0.657,3.898,0.959c0.646,0.15,1.292,0.289,1.942,0.423c0.389,0.08-0.012,1.01-0.08,1.327  c-0.299,1.397-0.893,3.008-0.73,4.46c-0.901-0.186-1.899-0.535-2.813-0.616c-1.238,0.119-2.258,0.117-3.439-0.27  c-0.485-0.159-1.217,0.188-1.552-0.294C10.94,27.806,11.441,27.369,10.804,27.036"/>
<path id="nj_2_" d="M84.531,41.654c-0.179,0.408-0.279,0.694-0.232,1.122c0.024,0.214,0.384,0.406,0.542,0.566  c0.57-0.287,0.175,0.474,0.403,0.523c0.218,0.047,1.858-3.901,0.298-3.474c-0.031-0.361,0.591-1.152,0.112-1.307  c-0.374-0.121-1.286-0.682-1.436-0.112c-0.129,0.49-0.438,0.927-0.161,1.441C84.352,40.964,85.343,41.052,84.531,41.654"/>
<path id="vt_1_" d="M87.098,30.1c-0.01,0.167-0.041,0.492,0.066,0.629c-0.041,0.346-0.432,0.666-0.297,1.055  c-0.144,0.51-0.351,2.069,0.095,2.411c-0.352,0.073-0.938,0.4-1.035-0.039c-0.024-0.108-0.346-1.399-0.441-1.088  c-0.114-0.722-0.198-1.731-0.546-2.388C85.66,30.486,86.379,30.293,87.098,30.1"/>
<path id="nh_1_" d="M89.463,33.598c-0.191,0.092-0.398,0.439-0.584,0.482c-0.398,0.093-0.797,0.186-1.195,0.278  c-0.584,0.136-0.357-1.516-0.34-1.884c0.121-0.682,0.258-1.239,0.306-1.839c0.132-0.498-0.145-0.701,0.358-1.019  c0.256,0.774,0.512,1.548,0.768,2.322C88.984,32.57,89.376,33.038,89.463,33.598z"/>
<path id="mi_upper_2_" d="M59.022,30.811c0.527-0.219,0.833-0.525,1.38-0.685c0.483-0.141,1.414-1.551,1.481-0.208  c-0.018-0.05-0.035-0.099-0.052-0.149c0.029,0.122,0.042,0.247,0.039,0.373c0.671-0.953,1.189,0.126,1.793,0.353  c1.101,0.414,2.233-0.972,3.33-0.879c-0.186,0.817,0.421,0.585,0.929,0.524c0.094-0.011,0.898,0.81,0.944,0.95  c-0.306,0.139-1.389-0.116-1.248,0.452c-0.254-0.171-0.953-0.708-1.243-0.335c-0.389,0.499-0.96,0.169-1.322,0.769  c-0.267-0.254-0.449-0.057-0.666,0.247c-0.103-0.116-0.14-0.257-0.113-0.423c-0.267,0.604-0.527,1.211-0.762,1.828  c-0.243-0.131-0.292-0.317-0.146-0.558c-0.452,0.158-0.242-0.334-0.281-0.573c-0.036-0.218-0.781-0.673-1.021-0.699  c-0.595-0.065-1.067-0.125-1.656-0.308C59.812,31.303,59.554,31.077,59.022,30.811"/>
<path id="mi_lower_1_" d="M68.68,40.455c0.592-0.098,1.186-0.186,1.773-0.306c0.903-0.185,0.549-1.834,1.284-2.236  c0.094,0.031,0.119,0.108,0.077,0.23c0.719-0.409-0.172-2.41-0.488-2.856c-0.76-1.073-1.513,1.607-1.905,0.503  c-0.176-0.496,0.816-0.981,0.764-1.408c-0.035-0.297-0.457-1.392-0.3-1.524c0.418-0.349-3.678-2.049-2.522-0.255  c-1.348-0.113-1.882,2.392-1.887,3.268c-0.008,1.436,1.61,3.596-0.053,4.822c1.081-0.102,2.158-0.238,3.237-0.369"/>
<path id="ma_2_" d="M89.505,36.535c0.192,0.07,0.389,0.23,0.393,0.452c0.202-0.131,0.395-0.551,0.608-0.609  c0.012,0.125,0.044,0.245,0.096,0.361c0.274-0.184,0.571-0.309,0.86-0.464c0.545-0.292-0.054-0.819-0.472-0.85  c0.469,0.172,0.67,0.893-0.038,0.787c-0.197-0.03-0.72-0.628-0.515-0.531c-0.218-0.442-0.689-0.18-0.849-0.533  c0.06-0.118,0.551-0.7,0.501-0.752c-0.278,0.045-0.38-0.114-0.419-0.407c-0.435,0.099-0.549,0.539-1.005,0.632  c-0.471,0.096-0.941,0.192-1.412,0.288c-0.354,0.072-0.712,0.129-1.067,0.193c-0.378,0.068-0.231,0.79-0.25,1.125  c-0.045,0.821,0.81,0.346,1.428,0.219c0.411-0.085,0.821-0.179,1.233-0.254C89.295,36.063,89.029,36.088,89.505,36.535"/>
<path id="me_1_" d="M88.593,28.598c0.422-0.059,0.749-1.269,0.752-1.713c0.007-0.937,0.02-1.704,0.321-2.593  c0.038-0.111,0.199-0.873,0.309-0.914c0.341-0.127,0.413,0.643,0.717,0.339c0.256-0.034,0.392-0.371,0.614-0.468  c0.247-0.108,0.902,0.213,0.984,0.455c0.235,0.697,0.68,1.521,0.73,2.255c0.04,0.588,0.409,0.273,0.728,0.468  c0.094,0.111,0.125,0.654,0.18,0.704c0.165,0.151,0.774-0.017,0.69,0.404c0.019,0.016-0.167,0.259,0.044,0.266  c0.041,0.002,0.201-0.2,0.181,0.05c-0.073,0.93-1.975,0.922-1.898,1.811c-0.121-0.049-0.248-0.068-0.38-0.058  c0.028-0.203,0.062-0.243-0.133-0.438c-0.278,0.539,0.095,1.281-0.51,1.382c-0.1,0.017-0.533,1.296-0.919,0.665  c-0.353,0.566-0.219,1.365-0.537,1.916C89.381,32.058,89.072,30.05,88.593,28.598"/>
<path d="M25.526,69.477c0.644-0.104,0.424-1.485-0.296-1.054C24.397,68.923,24.651,69.238,25.526,69.477  C25.626,69.461,25.33,69.423,25.526,69.477z"/>
<path d="M33.753,73.158c0.738-0.059,1.466-0.802,0.322-1.011c-0.199-0.036-0.918-0.258-1.05-0.202  C32.652,72.103,33.562,73.009,33.753,73.158C33.933,73.144,33.565,73.011,33.753,73.158z"/>
<path d="M35.685,77.727c0.295,0.198,0.598-0.476,0.827-0.627c0.442-0.291,0.917-0.333,1.368-0.648  c0.71-0.497-1.501-1.916-1.888-2.051c-0.11-0.038-1.185-0.602-0.734,0.094c0.342,0.529-0.34,0.552-0.403,0.995  c-0.051,0.358,0.225,0.747,0.352,1.064C35.47,77.213,35.013,77.233,35.685,77.727"/>
<path d="M29.89,71.227c0.777-0.233-0.25-1.509-0.84-0.976c-0.141,0.127-0.49-0.01-0.223,0.387  C29.112,71.065,29.443,71.062,29.89,71.227C30.047,71.18,29.711,71.161,29.89,71.227z"/>
<path d="M32.435,71.84c0.174-0.063,0.401-0.115,0.295-0.364c-0.296,0.037-0.59,0.021-0.881-0.047  c-0.343-0.194-0.541-0.11-0.596,0.252C31.688,71.681,32.014,71.756,32.435,71.84C32.628,71.771,32.191,71.791,32.435,71.84z"/>
<path d="M32.322,72.727c0.636-0.214-0.082-0.566-0.409-0.477C32.053,72.405,32.189,72.564,32.322,72.727  C32.413,72.696,32.188,72.564,32.322,72.727z"/>
<path d="M15.302,75.67c0.183-0.255,0.231-0.284,0.517-0.197C16.067,75.549,15.223,76.028,15.302,75.67  C15.386,75.553,15.259,75.865,15.302,75.67z"/>
<path d="M6.912,70.292c-0.273,0.243-0.334-0.173-0.224-0.322c0.238,0.21,0.601,0.239,0.886,0.438  c0.499,0.349,0.217,0.135-0.141,0.431C7.44,70.639,7.141,70.239,6.912,70.292C6.662,70.514,7.118,70.244,6.912,70.292z"/>
<path d="M8.272,73.901c-0.17-0.297,0.217-0.325,0.464-0.328C9.16,73.567,8.942,74.357,8.272,73.901  C8.217,73.807,8.431,74.01,8.272,73.901z"/>
<path d="M8.969,79.299c0.116-0.057,0.823-0.774,0.861-0.174C9.844,79.341,8.856,79.62,8.969,79.299  C9.089,79.241,8.923,79.43,8.969,79.299z"/>
<path d="M15.261,76.713c-0.365,0.274-0.045,0.452-0.56,0.216c-0.43-0.198,0.037-0.606,0.178-0.712  c0.131-0.099,0.327-0.113,0.382-0.269c0.122-0.338,0.574,0.265,0.587,0.268C15.688,76.463,15.427,76.485,15.261,76.713  C15.199,76.759,15.352,76.588,15.261,76.713z"/>
<path d="M7.206,80.218c-0.053,0.223-0.614,0.442-0.786,0.531C6.553,80.644,6.969,79.918,7.206,80.218  C7.163,80.399,7.041,80.009,7.206,80.218z"/>
<path d="M7.256,80.459c0.003,0.13,0.481-0.651,0.563-0.656C8.791,79.74,7.317,80.434,7.256,80.459z"/>
<path d="M24.058,74.187c-1.25-0.425,0.913-1.015,0.571-0.106c-0.12,0.32-0.319-0.424-0.379,0.217  C24.186,74.262,24.122,74.225,24.058,74.187C23.912,74.138,24.116,74.236,24.058,74.187z"/>
<path d="M24.797,74.002c-0.152-0.133-0.481-0.489-0.456-0.712c0.175,0.115,1.502,0.727,0.605,1.134  C24.977,74.253,24.927,74.113,24.797,74.002C24.67,73.89,24.996,74.063,24.797,74.002z"/>
<path d="M24.872,74.946c-0.186-0.13-0.574-0.576-0.514-0.82c0.448,0.053,0.87,0.633,0.853,1.068  C25.075,75.144,24.961,75.062,24.872,74.946C24.694,74.821,24.974,75.047,24.872,74.946z"/>
<path d="M25.45,75.073c-0.012-0.015-0.424-0.609-0.219-0.587C25.601,74.528,25.48,75.103,25.45,75.073  C25.325,74.921,25.498,75.121,25.45,75.073z"/>
<path d="M25.692,74.78c-0.02-0.007-0.367-0.462-0.349-0.5c0.027-0.059,0.345-0.117,0.407-0.096  C26.132,74.316,25.731,74.65,25.692,74.78"/>
<path d="M25.924,74.995c-0.111,0.017-0.183-0.027-0.215-0.132c0.193-0.036,0.717,0.117,0.833,0.33  c0.031,0.057,0.968,0.836,0.489,0.837c-0.081,0-0.422-0.328-0.656-0.304C26.141,75.748,26.083,75.088,25.924,74.995"/>
<path d="M26.321,74.614c0.064,0.075,0.212,0.215,0.29,0.298C26.397,75.18,26.069,74.648,26.321,74.614  C26.378,74.681,26.218,74.628,26.321,74.614z"/>
<path d="M27.119,75.346c-0.148-0.022-0.224-0.487-0.127-0.579c0.187-0.178,0.4,0.477,0.368,0.587  C27.28,75.351,27.2,75.349,27.119,75.346C26.933,75.318,27.2,75.306,27.119,75.346z"/>
<path d="M20.798,72.381c0.171,0.473,0.919-0.426,0.918-0.091c0,0.271,1.009,0.643,1.218,0.934c0.374-0.713,0.407-1.424,1.217-0.729  c1.113,0.052,1.669,1.754,2.829,1.723c0.213-0.006,0.742,0.057,0.682,0.353c-0.047,0.234,0.624,0.834,0.158,1.051  c-0.312,0.145-0.267-0.508-0.383-0.67c-0.577-0.805-0.383,0.163-0.611,0.277c-0.168,0.084-0.181-0.663-0.427-0.757  c-0.131-0.05-0.928-0.354-0.974-0.416c-0.254-0.346-0.8-1.305-1.176-0.608c0.05-0.093-0.613,0.198-0.658,0.231  c-0.149,0.111-0.713-0.294-0.876-0.361c-0.302-0.123-0.936-0.052-1.05-0.426c-0.11-0.36-0.521,0.103-0.773,0.062  c-0.473-0.076-0.705-0.113-1.146,0.098c-0.372,0.178-0.448-0.098-0.785-0.172c-0.393-0.087-1.461-0.136-1.659-0.392  c-0.05,0.343,0.247,0.615,0.097,0.954c-0.099,0.224-0.429,0.122-0.568,0.355c-0.163,0.27-0.607,0.886-0.983,0.863  c-0.165-0.01,0.212-0.547,0.222-0.606c-0.826,0.572,0.281-1.861,0.444-1.443c-0.19-0.491-0.934,0.5-0.989,0.629  c-0.121,0.282-0.119,0.654-0.319,0.898c-0.199,0.242-0.469,0.363-0.567,0.686c0.07,0.1,0.545,0.029,0.494,0.236  c-0.016,0.064-0.421,0.725-0.444,0.736c-0.297,0.149-0.647,0.407-0.869,0.659c-0.207,0.236-0.141,0.688-0.579,0.733  c-0.149,0.015-1.141,1.255-1.268,1.044c0.04,0.066-1.159,0.378-1.19,0.402c-0.441,0.338-1.321,0.579-0.494-0.008  c0.281-0.2,0.273-0.488,0.691-0.567c0.273-0.051,0.286,0.272,0.482-0.021c0.374-0.56,0.848-0.744,1.199-1.268  c0.118-0.177,0.687-1.378,0.63-1.523c-0.092-0.229-0.618,0.404-0.845-0.107c-0.149,0.139,0.053,0.404-0.083,0.505  c-0.126,0.094-0.39-0.424-0.414-0.505c-0.239,0.322-0.259-0.162-0.585-0.023c-0.11,0.047-0.346,0.323-0.46,0.347  c-0.19,0.039,0.271-1.643-0.517-1.368c-0.145,0.051-0.765,0.319-0.677-0.073c-0.442-0.658-0.415-0.373-0.221-1.109  c-0.54,0.048-0.247-0.402-0.588-0.447c0.009-0.337,0.595-1.253,0.848-1.534c0.341-0.379,0.475,0.36,0.87-0.164  c0.237-0.315,0.624,0.19,0.686-0.315c0.023-0.19-0.005-0.392-0.053-0.576c-0.086-0.326,0.208-0.325,0.122-0.556  c-0.105-0.282-0.749,0.346-0.777,0.378c-0.136-0.188-0.458-0.186-0.805-0.126c-0.415,0.071-1.236-0.686-0.587-0.8  c-1.013-0.655-0.19-0.513,0.338-1.04c0.141-0.141,0.77-0.453,0.681-0.036c-0.151,0.701,0.765,0.307,1.093,0.19  c-0.48-0.214-0.419-0.622-0.767-0.809c-0.192-0.103-0.481-0.697-0.5-0.714c-0.383-0.351-0.61-0.42-0.532-0.925  c0.05-0.326,0.344-0.215,0.571-0.212c0.463,0.006,0.627-0.555,0.781-0.894c0.15-0.327,2.299-1.621,2.315-1.163  c-0.071,0.036-0.129,0.086-0.175,0.149c-0.01-0.191,0.958-0.054,1.176,0.018c0.876,0.219,1.998,0.505,2.907,0.211  c1.349-0.437,1.362,0.891,1.63,1.799C19.414,67.693,20.106,70.037,20.798,72.381z"/>
<path id="ri_2_" d="M88.819,38.387c0.36-0.149,0.601-0.282,0.513-0.688c0.026-0.108-0.225-0.455,0.085-0.455  c-0.116-0.102-0.219-0.435-0.385-0.478c-0.093-0.024-0.541,0.129-0.517,0.212C88.651,37.457,88.742,37.921,88.819,38.387"/>
<path id="ct_2_" d="M87.729,37.175c-0.265,0.061-1.742,0.309-1.73,0.377c0.117,0.649,0.462,1.494,0.147,2.019  c-0.196,0.326,0.416,0.007,0.461-0.037c0.46-0.452,0.511-0.566,1.142-0.719c0.37-0.182,0.554-0.169,0.443-0.604  C88.098,37.842,88.11,37.18,87.729,37.175z"/>
<path id="md_2_" d="M81.517,44.614c0.731,0.16-0.235,0.904,0.122,1.116c-0.022-0.033,1.371,0.333,1.499,0.415  c-0.084-0.408-0.352-0.696-0.515-1.07c-0.131-0.302-0.199-0.639-0.162-0.968c0.011-0.097,0.459-1.156,0.563-0.927  c0.253,0.556-0.342,1.224,0.114,1.873c0.091,0.173-0.07,0.437,0.162,0.426c0.233-0.011,0.556,0.072,0.699,0.276  c0.249,0.355-0.057,0.453,0.357,0.486c0.566,0.045,0.753-0.736,0.766-1.154c-0.259,0.05-1.101,0.368-1.319,0.253  c-0.167-0.089-0.309-1.102-0.359-1.282c-0.14-0.5-0.28-1.001-0.421-1.501c-0.019-0.069-1.195,0.242-1.309,0.268  c-0.86,0.196-1.716,0.385-2.582,0.55c-0.551,0.105-1.102,0.21-1.653,0.315c-0.235,0.045,0.042,0.911,0.079,1.136  c0.287-0.403,0.736-0.707,0.962-1.082c0.044-0.073,0.562,0.54,0.528,0.259c0.306,0.017,0.297-0.342,0.683-0.323  c0.378,0.018,0.613,0.21,0.913,0.348c0.274,0.126,0.081,0.205,0.246,0.379C80.997,44.52,81.356,44.543,81.517,44.614"/>
<path id="de_2_" d="M83.508,42.479c0.07-0.392,0.329-0.504,0.281-0.061c-0.031,0.288,0.07,0.812,0.311,1.019  c0.131,0.113,0.897,0.922,0.888,1.237c-0.416,0.082-0.784,0.359-0.919-0.098c-0.171-0.576-0.341-1.152-0.512-1.728"/>
</svg>