<svg xmlns:dc="http://purl.org/dc/elements/1.1/" xmlns:cc="http://creativecommons.org/ns#" xmlns:rdf="http://www.w3.org/1999/02/22-rdf-syntax-ns#" xmlns:svg="http://www.w3.org/2000/svg" xmlns="http://www.w3.org/2000/svg" xmlns:xlink="http://www.w3.org/1999/xlink" xmlns:sodipodi="http://sodipodi.sourceforge.net/DTD/sodipodi-0.dtd" xmlns:inkscape="http://www.inkscape.org/namespaces/inkscape" version="1.1" id="Layer_1" x="0px" y="0px" width="100px" height="100px" viewBox="0 0 100 100" enable-background="new 0 0 100 100" xml:space="preserve" inkscape:version="0.48.4 r9939" sodipodi:docname="month.svg"><metadata id="metadata25"><rdf:RDF><cc:Work rdf:about=""><dc:format>image/svg+xml</dc:format><dc:type rdf:resource="http://purl.org/dc/dcmitype/StillImage"/><dc:title/></cc:Work></rdf:RDF></metadata><defs id="defs23"/><sodipodi:namedview pagecolor="#ffffff" bordercolor="#666666" borderopacity="1" objecttolerance="10" gridtolerance="10" guidetolerance="10" inkscape:pageopacity="0" inkscape:pageshadow="2" inkscape:window-width="1366" inkscape:window-height="705" id="namedview21" showgrid="false" showguides="true" inkscape:guide-bbox="true" inkscape:zoom="2.36" inkscape:cx="87.906655" inkscape:cy="29.565987" inkscape:window-x="-8" inkscape:window-y="-8" inkscape:window-maximized="1" inkscape:current-layer="g3143" inkscape:snap-global="true"><sodipodi:guide orientation="0,1" position="-6.9915254,59.957627" id="guide3105"/><sodipodi:guide orientation="0,1" position="91.525424,0" id="guide3107"/><sodipodi:guide orientation="0,1" position="-2.2245763,39.936441" id="guide3109"/><sodipodi:guide orientation="0,1" position="-10.063559,58.050848" id="guide3113"/><sodipodi:guide orientation="1,0" position="39.999473,93.332103" id="guide3117"/><sodipodi:guide orientation="1,0" position="5.8426196,97.676615" id="guide3123"/><sodipodi:guide orientation="1,0" position="23.969721,94.530589" id="guide3127"/><sodipodi:guide orientation="1,0" position="57.976764,97.676615" id="guide3133"/><sodipodi:guide orientation="1,0" position="41.947013,92.882671" id="guide3147"/><sodipodi:guide orientation="0,1" position="68.014084,97.676615" id="guide3237"/><sodipodi:guide orientation="1,0" position="76.103866,93.182292" id="guide3335"/><sodipodi:guide orientation="1,0" position="100.37321,56.029224" id="guide3337"/><sodipodi:guide orientation="0,1" position="-5.8262712,42.055085" id="guide3339"/><sodipodi:guide orientation="0,1" position="-22.351695,5.9322034" id="guide3178"/><sodipodi:guide orientation="1,0" position="22.022182,91.684185" id="guide3180"/><sodipodi:guide orientation="1,0" position="60.074114,82.545728" id="guide3182"/><sodipodi:guide orientation="1,0" position="78.051406,84.193647" id="guide3184"/><sodipodi:guide orientation="1,0" position="93.931346,93.182292" id="guide3186"/><sodipodi:guide orientation="0,1" position="-19.915254,22.033898" id="guide3188"/><sodipodi:guide orientation="0,1" position="-8.2627119,76.059322" id="guide3192"/><sodipodi:guide orientation="0,1" position="14.936441,24.04661" id="guide3194"/><sodipodi:guide orientation="0,1" position="37.45269,74.006515" id="guide3196"/><sodipodi:guide orientation="0,1" position="16.778805,56.029224" id="guide3198"/><sodipodi:guide orientation="0,1" position="-2.9962152,38.051933" id="guide3200"/><sodipodi:guide orientation="0,1" position="-7.9399702,20.074642" id="guide3202"/><sodipodi:guide orientation="1,0" position="7.9399702,74.006515" id="guide3204"/><sodipodi:guide orientation="1,0" position="26.067072,78.051406" id="guide3206"/><sodipodi:guide orientation="1,0" position="44.044363,80.298567" id="guide3208"/><sodipodi:guide orientation="1,0" position="79.998945,83.444593" id="guide3212"/><sodipodi:guide orientation="0,1" position="89.936441,92.584746" id="guide3403"/><sodipodi:guide orientation="0,1" position="10.636564,85.91647" id="guide3405"/><sodipodi:guide orientation="1,0" position="17.977291,99.474344" id="guide3407"/><sodipodi:guide orientation="1,0" position="28.014612,92.584746" id="guide3409"/><sodipodi:guide orientation="0,1" position="26.067072,115.72881" id="guide3413"/><sodipodi:guide orientation="0,1" position="23.969721,88.013821" id="guide3415"/><sodipodi:guide orientation="1,0" position="84.043836,110.18581" id="guide3417"/><sodipodi:guide orientation="1,0" position="74.006515,97.676615" id="guide3419"/><sodipodi:guide orientation="1,0" position="85.991376,95.504359" id="guide3421"/></sodipodi:namedview>









<g inkscape:groupmode="layer" id="layer1" inkscape:label="Layer" style="display:inline"><path clip-rule="evenodd" d="M 0,7.440678 0,100 l 100.37321,0 -0.449434,-92.559322 -13.9324,-0.025424 0,6.668276 -11.984861,0 0,-6.668276 -47.991903,0 0,6.668276 -11.984861,0 0,-6.668276 z m 22.022182,32.601695 -16.1795624,0 0,-16.101695 16.1795624,0 z m 18.161893,0.05339 -16.179562,0 0,-16.101695 16.179562,0 z m 17.988403,-0.01619 -16.179562,0 0,-16.101695 16.179562,0 z m 18.075148,0.05791 -16.179562,0 0,-16.1017 16.179562,0 z m 18.100345,-0.0591 -16.179562,0 0,-16.10169 16.179562,0 z m -72.267847,18.030226 -16.1795601,0 0,-16.1017 16.1795601,0 z m 18.075146,-0.04409 -16.17956,0 0,-16.10169 16.17956,0 z m 17.984737,0.0025 -16.17957,0 0,-16.1017 16.17957,0 z m 18.134538,0.0399 -16.17956,0 0,-16.10169 16.17956,0 z m -54.052725,18.152268 -16.17956,0 0,-16.1017 16.17956,0 z m 17.984727,-0.05002 -16.17956,0 0,-16.10169 16.17956,0 z m 17.947275,0.0025 -16.17956,0 0,-16.1017 16.17956,0 z m 18.134548,0.0024 -16.17957,0 0,-16.10169 16.17957,0 z m 18.02218,-18.162362 -16.17956,0 0,-16.1017 16.17956,0 z m -0.01527,18.189711 -16.17956,0 0,-16.10169 16.17956,0 z m -72.239989,17.852646 -16.1795595,0 0,-16.1017 16.1795595,0 z m 18.134539,-0.01256 -16.17956,0 0,-16.10169 16.17956,0 z m 17.984737,0.03991 -16.17957,0 0,-16.1017 16.17957,0 z m 18.134538,0.0024 -16.17956,0 0,-16.10169 16.17956,0 z m 17.984727,-0.05 -16.17956,0 0,-16.1017 16.17956,0 z" id="path3" inkscape:connector-curvature="0" style="fill-rule:evenodd" sodipodi:nodetypes="ccccccccccccccccccccccccccccccccccccccccccccccccccccccccccccccccccccccccccccccccccccccccccccccccccccccccccccccccc"/></g><g inkscape:groupmode="layer" id="layer3" inkscape:label="Layer#2" style="display:none"><path style="fill:#000000" d="m 17.97729,53.161692 65.017868,0 0,15.580318 -65.017868,0 z" id="rect3140" inkscape:connector-curvature="0"/></g><g inkscape:groupmode="layer" id="layer2" inkscape:label="Layer#1" style="display:none"/><g style="display:inline" inkscape:label="1" id="g3143" inkscape:groupmode="layer"><path inkscape:connector-curvature="0" id="path3145-4" d="m 7.9426556,44.020596 12.4424804,0 0,11.675892 -12.4424804,0 z" style="fill:#000000;display:inline" sodipodi:nodetypes="ccccc"/><path inkscape:connector-curvature="0" id="path3145-4-5" d="m 26.09232,44.003156 12.44248,0 0,11.675892 -12.44248,0 z" style="fill:#000000;display:inline" sodipodi:nodetypes="ccccc"/><path inkscape:connector-curvature="0" id="path3145-4-5-6" d="m 44.06976,44.035218 12.44248,0 0,11.675892 -12.44248,0 z" style="fill:#000000;display:inline" sodipodi:nodetypes="ccccc"/><path inkscape:connector-curvature="0" id="path3145-4-5-6-1" d="m 62.06923,44.050092 12.44248,0 0,11.675892 -12.44248,0 z" style="fill:#000000;display:inline" sodipodi:nodetypes="ccccc"/><path inkscape:connector-curvature="0" id="path3145-4-5-6-4" d="m 79.994325,43.975187 12.44248,0 0,11.675892 -12.44248,0 z" style="fill:#000000;display:inline" sodipodi:nodetypes="ccccc"/><path inkscape:connector-curvature="0" id="path3145-1-6-1" d="m 76.032997,-0.0964194 8.010839,0.07490538 0,12.00769302 -7.93997,0 z" style="fill:#000000;display:inline" sodipodi:nodetypes="ccccc"/><path inkscape:connector-curvature="0" id="path3145-1-6-1-8" d="m 15.978248,-0.0116741 8.062911,0 0.02591,11.9978531 -8.089781,0 z" style="fill:#000000;display:inline" sodipodi:nodetypes="ccccc"/></g><g inkscape:groupmode="layer" id="g3149" inkscape:label="1 copy" style="display:inline"/><g style="display:inline" inkscape:label="1 copy copy" id="g3153" inkscape:groupmode="layer"/><g inkscape:groupmode="layer" id="g3173" inkscape:label="1 copy copy copy#1" style="display:inline"/><g style="display:inline" inkscape:label="1 copy copy copy#2" id="g3177" inkscape:groupmode="layer"/><g inkscape:groupmode="layer" id="g3197" inkscape:label="1 copy copy copy#7" style="display:inline"/><g style="display:inline" inkscape:label="1 copy copy copy#8" id="g3201" inkscape:groupmode="layer"/><g inkscape:groupmode="layer" id="g3205" inkscape:label="1 copy copy copy#9" style="display:inline"/><g style="display:inline" inkscape:label="1 copy copy copy#10" id="g3209" inkscape:groupmode="layer"/><g inkscape:groupmode="layer" id="g3213" inkscape:label="1 copy copy copy#11" style="display:inline"/><g inkscape:groupmode="layer" id="g3181" inkscape:label="1 copy copy copy#3" style="display:inline"/><g style="display:inline" inkscape:label="1 copy copy copy#4" id="g3185" inkscape:groupmode="layer"/><g inkscape:groupmode="layer" id="g3189" inkscape:label="1 copy copy copy#5" style="display:inline"/><g style="display:inline" inkscape:label="1 copy copy copy#6" id="g3193" inkscape:groupmode="layer"/><g inkscape:groupmode="layer" id="g3157" inkscape:label="1 copy copy copy" style="display:inline"/><g style="display:inline" inkscape:label="1 copy copy copy copy" id="g3161" inkscape:groupmode="layer"/><g inkscape:groupmode="layer" id="g3165" inkscape:label="1 copy copy copy copy copy" style="display:inline"/><g style="display:inline" inkscape:label="1 copy copy copy copy copy copy" id="g3169" inkscape:groupmode="layer"/></svg>